<?xml version="1.0" encoding="utf-8" standalone="no"?>
<!DOCTYPE svg PUBLIC "-//W3C//DTD SVG 1.1//EN"
  "http://www.w3.org/Graphics/SVG/1.1/DTD/svg11.dtd">
<!-- Created with matplotlib (http://matplotlib.org/) -->
<svg height="288pt" version="1.1" viewBox="0 0 432 288" width="432pt" xmlns="http://www.w3.org/2000/svg" xmlns:xlink="http://www.w3.org/1999/xlink">
 <defs>
  <style type="text/css">
*{stroke-linecap:butt;stroke-linejoin:round;}
  </style>
 </defs>
 <g id="figure_1">
  <g id="patch_1">
   <path d="M 0 288 
L 432 288 
L 432 0 
L 0 0 
z
" style="fill:#ffffff;"/>
  </g>
  <g id="axes_1">
   <g id="patch_2">
    <path d="M 54 252 
L 388.8 252 
L 388.8 34.56 
L 54 34.56 
z
" style="fill:#ffffff;"/>
   </g>
   <g id="PolyCollection_1">
    <defs>
     <path d="M 69.218182 -45.883636 
L 69.218182 -45.883636 
L 72.292562 -48.24512 
L 75.366942 -48.400237 
L 78.441322 -48.537882 
L 81.515702 -48.658229 
L 84.590083 -59.422943 
L 87.664463 -59.422943 
L 90.738843 -59.422943 
L 93.813223 -59.422943 
L 96.887603 -61.497027 
L 99.961983 -69.32087 
L 103.036364 -69.214141 
L 106.110744 -69.099245 
L 109.185124 -68.976386 
L 112.259504 -69.901101 
L 115.333884 -71.839001 
L 118.408264 -72.231596 
L 121.482645 -72.60593 
L 124.557025 -72.2763 
L 127.631405 -85.984208 
L 130.705785 -86.114327 
L 133.780165 -86.235526 
L 136.854545 -86.347858 
L 139.928926 -89.571511 
L 143.003306 -92.697833 
L 146.077686 -92.706933 
L 149.152066 -92.704088 
L 152.226446 -95.438346 
L 155.300826 -95.438346 
L 158.375207 -106.359334 
L 161.449587 -107.30326 
L 164.523967 -108.235306 
L 167.598347 -112.448477 
L 170.672727 -124.178874 
L 173.747107 -124.228882 
L 176.821488 -124.277782 
L 179.895868 -125.182998 
L 182.970248 -125.231515 
L 186.044628 -129.594159 
L 189.119008 -129.926246 
L 192.193388 -130.247968 
L 195.267769 -130.587643 
L 198.342149 -130.894902 
L 201.416529 -148.367451 
L 204.490909 -148.723634 
L 207.565289 -149.108428 
L 210.639669 -149.44506 
L 213.71405 -149.768544 
L 216.78843 -154.166683 
L 219.86281 -154.166683 
L 222.93719 -154.163605 
L 226.01157 -154.147876 
L 229.08595 -154.902187 
L 232.160331 -154.885215 
L 235.234711 -156.092765 
L 238.309091 -156.092765 
L 241.383471 -156.092765 
L 244.457851 -162.347974 
L 247.532231 -164.20915 
L 250.606612 -166.031405 
L 253.680992 -167.810579 
L 256.755372 -169.542128 
L 259.829752 -175.191365 
L 262.904132 -175.837308 
L 265.978512 -176.472561 
L 269.052893 -177.096563 
L 272.127273 -182.778279 
L 275.201653 -182.778279 
L 278.276033 -186.935298 
L 281.350413 -186.935298 
L 284.424793 -186.935298 
L 287.499174 -196.975073 
L 290.573554 -196.975073 
L 293.647934 -196.975073 
L 296.722314 -196.975073 
L 299.796694 -196.975073 
L 302.871074 -196.867139 
L 305.945455 -197.480564 
L 309.019835 -197.765472 
L 312.094215 -198.015156 
L 315.168595 -198.23055 
L 318.242975 -203.62042 
L 321.317355 -203.62042 
L 324.391736 -203.62042 
L 327.466116 -203.62042 
L 330.540496 -205.505229 
L 333.614876 -207.211567 
L 336.689256 -208.021501 
L 339.763636 -208.826648 
L 342.838017 -209.626554 
L 345.912397 -220.723063 
L 348.986777 -220.723063 
L 352.061157 -220.723063 
L 355.135537 -220.723063 
L 358.209917 -220.723063 
L 361.284298 -230.494024 
L 364.358678 -231.085456 
L 367.433058 -231.635948 
L 370.507438 -232.139781 
L 373.581818 -243.556364 
L 373.581818 -243.556364 
L 373.581818 -243.556364 
L 370.507438 -243.556364 
L 367.433058 -243.556364 
L 364.358678 -243.556364 
L 361.284298 -243.556364 
L 358.209917 -243.556364 
L 355.135537 -243.556364 
L 352.061157 -243.556364 
L 348.986777 -243.556364 
L 345.912397 -243.556364 
L 342.838017 -243.556364 
L 339.763636 -243.556364 
L 336.689256 -243.556364 
L 333.614876 -243.556364 
L 330.540496 -243.556364 
L 327.466116 -243.556364 
L 324.391736 -243.556364 
L 321.317355 -243.556364 
L 318.242975 -243.556364 
L 315.168595 -241.186407 
L 312.094215 -240.523255 
L 309.019835 -239.894394 
L 305.945455 -239.300756 
L 302.871074 -237.498182 
L 299.796694 -235.413521 
L 296.722314 -235.413521 
L 293.647934 -235.413521 
L 290.573554 -235.413521 
L 287.499174 -235.413521 
L 284.424793 -227.142559 
L 281.350413 -227.142559 
L 278.276033 -227.142559 
L 275.201653 -223.392669 
L 272.127273 -223.392669 
L 269.052893 -224.471479 
L 265.978512 -224.654106 
L 262.904132 -224.847985 
L 259.829752 -225.052554 
L 256.755372 -221.77972 
L 253.680992 -221.789908 
L 250.606612 -221.847722 
L 247.532231 -221.948616 
L 244.457851 -222.088431 
L 241.383471 -219.490929 
L 238.309091 -219.490929 
L 235.234711 -219.490929 
L 232.160331 -218.282478 
L 229.08595 -217.826234 
L 226.01157 -214.187818 
L 222.93719 -213.732816 
L 219.86281 -213.510102 
L 216.78843 -213.510102 
L 213.71405 -211.690114 
L 210.639669 -211.454524 
L 207.565289 -211.232081 
L 204.490909 -209.081074 
L 201.416529 -208.878183 
L 198.342149 -211.330337 
L 195.267769 -211.078521 
L 192.193388 -208.882395 
L 189.119008 -208.645042 
L 186.044628 -208.418055 
L 182.970248 -204.302105 
L 179.895868 -204.210853 
L 176.821488 -202.999573 
L 173.747107 -202.908705 
L 170.672727 -202.818944 
L 167.598347 -199.517386 
L 164.523967 -196.917626 
L 161.449587 -196.966924 
L 158.375207 -197.0281 
L 155.300826 -197.018765 
L 152.226446 -197.018765 
L 149.152066 -190.967567 
L 146.077686 -190.086177 
L 143.003306 -189.216731 
L 139.928926 -175.411086 
L 136.854545 -173.822707 
L 133.780165 -173.515733 
L 130.705785 -173.217626 
L 127.631405 -172.928439 
L 124.557025 -160.500671 
L 121.482645 -157.313666 
L 118.408264 -156.807353 
L 115.333884 -156.3193 
L 112.259504 -153.382115 
L 109.185124 -149.914102 
L 106.110744 -149.35197 
L 103.036364 -148.797802 
L 99.961983 -148.2518 
L 96.887603 -143.56793 
L 93.813223 -125.874741 
L 90.738843 -125.874741 
L 87.664463 -125.874741 
L 84.590083 -125.874741 
L 81.515702 -98.558293 
L 78.441322 -98.237266 
L 75.366942 -97.933536 
L 72.292562 -97.647278 
L 69.218182 -45.883636 
z
" id="m493a461a14" style="stroke:#808080;stroke-opacity:0.2;"/>
    </defs>
    <g clip-path="url(#p4b529f77e4)">
     <use style="fill:#808080;fill-opacity:0.2;stroke:#808080;stroke-opacity:0.2;" x="0" xlink:href="#m493a461a14" y="288"/>
    </g>
   </g>
   <g id="matplotlib.axis_1">
    <g id="xtick_1">
     <g id="line2d_1">
      <defs>
       <path d="M 0 0 
L 0 3.5 
" id="m6ad7ac95dc" style="stroke:#000000;stroke-width:0.8;"/>
      </defs>
      <g>
       <use style="stroke:#000000;stroke-width:0.8;" x="69.218182" xlink:href="#m6ad7ac95dc" y="252"/>
      </g>
     </g>
     <g id="text_1">
      <!-- 0.0 -->
      <defs>
       <path d="M 31.78125 66.40625 
Q 24.171875 66.40625 20.328125 58.90625 
Q 16.5 51.421875 16.5 36.375 
Q 16.5 21.390625 20.328125 13.890625 
Q 24.171875 6.390625 31.78125 6.390625 
Q 39.453125 6.390625 43.28125 13.890625 
Q 47.125 21.390625 47.125 36.375 
Q 47.125 51.421875 43.28125 58.90625 
Q 39.453125 66.40625 31.78125 66.40625 
z
M 31.78125 74.21875 
Q 44.046875 74.21875 50.515625 64.515625 
Q 56.984375 54.828125 56.984375 36.375 
Q 56.984375 17.96875 50.515625 8.265625 
Q 44.046875 -1.421875 31.78125 -1.421875 
Q 19.53125 -1.421875 13.0625 8.265625 
Q 6.59375 17.96875 6.59375 36.375 
Q 6.59375 54.828125 13.0625 64.515625 
Q 19.53125 74.21875 31.78125 74.21875 
z
" id="DejaVuSans-30"/>
       <path d="M 10.6875 12.40625 
L 21 12.40625 
L 21 0 
L 10.6875 0 
z
" id="DejaVuSans-2e"/>
      </defs>
      <g transform="translate(61.266619 266.598437)scale(0.1 -0.1)">
       <use xlink:href="#DejaVuSans-30"/>
       <use x="63.623047" xlink:href="#DejaVuSans-2e"/>
       <use x="95.410156" xlink:href="#DejaVuSans-30"/>
      </g>
     </g>
    </g>
    <g id="xtick_2">
     <g id="line2d_2">
      <g>
       <use style="stroke:#000000;stroke-width:0.8;" x="130.090909" xlink:href="#m6ad7ac95dc" y="252"/>
      </g>
     </g>
     <g id="text_2">
      <!-- 0.2 -->
      <defs>
       <path d="M 19.1875 8.296875 
L 53.609375 8.296875 
L 53.609375 0 
L 7.328125 0 
L 7.328125 8.296875 
Q 12.9375 14.109375 22.625 23.890625 
Q 32.328125 33.6875 34.8125 36.53125 
Q 39.546875 41.84375 41.421875 45.53125 
Q 43.3125 49.21875 43.3125 52.78125 
Q 43.3125 58.59375 39.234375 62.25 
Q 35.15625 65.921875 28.609375 65.921875 
Q 23.96875 65.921875 18.8125 64.3125 
Q 13.671875 62.703125 7.8125 59.421875 
L 7.8125 69.390625 
Q 13.765625 71.78125 18.9375 73 
Q 24.125 74.21875 28.421875 74.21875 
Q 39.75 74.21875 46.484375 68.546875 
Q 53.21875 62.890625 53.21875 53.421875 
Q 53.21875 48.921875 51.53125 44.890625 
Q 49.859375 40.875 45.40625 35.40625 
Q 44.1875 33.984375 37.640625 27.21875 
Q 31.109375 20.453125 19.1875 8.296875 
z
" id="DejaVuSans-32"/>
      </defs>
      <g transform="translate(122.139347 266.598437)scale(0.1 -0.1)">
       <use xlink:href="#DejaVuSans-30"/>
       <use x="63.623047" xlink:href="#DejaVuSans-2e"/>
       <use x="95.410156" xlink:href="#DejaVuSans-32"/>
      </g>
     </g>
    </g>
    <g id="xtick_3">
     <g id="line2d_3">
      <g>
       <use style="stroke:#000000;stroke-width:0.8;" x="190.963636" xlink:href="#m6ad7ac95dc" y="252"/>
      </g>
     </g>
     <g id="text_3">
      <!-- 0.4 -->
      <defs>
       <path d="M 37.796875 64.3125 
L 12.890625 25.390625 
L 37.796875 25.390625 
z
M 35.203125 72.90625 
L 47.609375 72.90625 
L 47.609375 25.390625 
L 58.015625 25.390625 
L 58.015625 17.1875 
L 47.609375 17.1875 
L 47.609375 0 
L 37.796875 0 
L 37.796875 17.1875 
L 4.890625 17.1875 
L 4.890625 26.703125 
z
" id="DejaVuSans-34"/>
      </defs>
      <g transform="translate(183.012074 266.598437)scale(0.1 -0.1)">
       <use xlink:href="#DejaVuSans-30"/>
       <use x="63.623047" xlink:href="#DejaVuSans-2e"/>
       <use x="95.410156" xlink:href="#DejaVuSans-34"/>
      </g>
     </g>
    </g>
    <g id="xtick_4">
     <g id="line2d_4">
      <g>
       <use style="stroke:#000000;stroke-width:0.8;" x="251.836364" xlink:href="#m6ad7ac95dc" y="252"/>
      </g>
     </g>
     <g id="text_4">
      <!-- 0.6 -->
      <defs>
       <path d="M 33.015625 40.375 
Q 26.375 40.375 22.484375 35.828125 
Q 18.609375 31.296875 18.609375 23.390625 
Q 18.609375 15.53125 22.484375 10.953125 
Q 26.375 6.390625 33.015625 6.390625 
Q 39.65625 6.390625 43.53125 10.953125 
Q 47.40625 15.53125 47.40625 23.390625 
Q 47.40625 31.296875 43.53125 35.828125 
Q 39.65625 40.375 33.015625 40.375 
z
M 52.59375 71.296875 
L 52.59375 62.3125 
Q 48.875 64.0625 45.09375 64.984375 
Q 41.3125 65.921875 37.59375 65.921875 
Q 27.828125 65.921875 22.671875 59.328125 
Q 17.53125 52.734375 16.796875 39.40625 
Q 19.671875 43.65625 24.015625 45.921875 
Q 28.375 48.1875 33.59375 48.1875 
Q 44.578125 48.1875 50.953125 41.515625 
Q 57.328125 34.859375 57.328125 23.390625 
Q 57.328125 12.15625 50.6875 5.359375 
Q 44.046875 -1.421875 33.015625 -1.421875 
Q 20.359375 -1.421875 13.671875 8.265625 
Q 6.984375 17.96875 6.984375 36.375 
Q 6.984375 53.65625 15.1875 63.9375 
Q 23.390625 74.21875 37.203125 74.21875 
Q 40.921875 74.21875 44.703125 73.484375 
Q 48.484375 72.75 52.59375 71.296875 
z
" id="DejaVuSans-36"/>
      </defs>
      <g transform="translate(243.884801 266.598437)scale(0.1 -0.1)">
       <use xlink:href="#DejaVuSans-30"/>
       <use x="63.623047" xlink:href="#DejaVuSans-2e"/>
       <use x="95.410156" xlink:href="#DejaVuSans-36"/>
      </g>
     </g>
    </g>
    <g id="xtick_5">
     <g id="line2d_5">
      <g>
       <use style="stroke:#000000;stroke-width:0.8;" x="312.709091" xlink:href="#m6ad7ac95dc" y="252"/>
      </g>
     </g>
     <g id="text_5">
      <!-- 0.8 -->
      <defs>
       <path d="M 31.78125 34.625 
Q 24.75 34.625 20.71875 30.859375 
Q 16.703125 27.09375 16.703125 20.515625 
Q 16.703125 13.921875 20.71875 10.15625 
Q 24.75 6.390625 31.78125 6.390625 
Q 38.8125 6.390625 42.859375 10.171875 
Q 46.921875 13.96875 46.921875 20.515625 
Q 46.921875 27.09375 42.890625 30.859375 
Q 38.875 34.625 31.78125 34.625 
z
M 21.921875 38.8125 
Q 15.578125 40.375 12.03125 44.71875 
Q 8.5 49.078125 8.5 55.328125 
Q 8.5 64.0625 14.71875 69.140625 
Q 20.953125 74.21875 31.78125 74.21875 
Q 42.671875 74.21875 48.875 69.140625 
Q 55.078125 64.0625 55.078125 55.328125 
Q 55.078125 49.078125 51.53125 44.71875 
Q 48 40.375 41.703125 38.8125 
Q 48.828125 37.15625 52.796875 32.3125 
Q 56.78125 27.484375 56.78125 20.515625 
Q 56.78125 9.90625 50.3125 4.234375 
Q 43.84375 -1.421875 31.78125 -1.421875 
Q 19.734375 -1.421875 13.25 4.234375 
Q 6.78125 9.90625 6.78125 20.515625 
Q 6.78125 27.484375 10.78125 32.3125 
Q 14.796875 37.15625 21.921875 38.8125 
z
M 18.3125 54.390625 
Q 18.3125 48.734375 21.84375 45.5625 
Q 25.390625 42.390625 31.78125 42.390625 
Q 38.140625 42.390625 41.71875 45.5625 
Q 45.3125 48.734375 45.3125 54.390625 
Q 45.3125 60.0625 41.71875 63.234375 
Q 38.140625 66.40625 31.78125 66.40625 
Q 25.390625 66.40625 21.84375 63.234375 
Q 18.3125 60.0625 18.3125 54.390625 
z
" id="DejaVuSans-38"/>
      </defs>
      <g transform="translate(304.757528 266.598437)scale(0.1 -0.1)">
       <use xlink:href="#DejaVuSans-30"/>
       <use x="63.623047" xlink:href="#DejaVuSans-2e"/>
       <use x="95.410156" xlink:href="#DejaVuSans-38"/>
      </g>
     </g>
    </g>
    <g id="xtick_6">
     <g id="line2d_6">
      <g>
       <use style="stroke:#000000;stroke-width:0.8;" x="373.581818" xlink:href="#m6ad7ac95dc" y="252"/>
      </g>
     </g>
     <g id="text_6">
      <!-- 1.0 -->
      <defs>
       <path d="M 12.40625 8.296875 
L 28.515625 8.296875 
L 28.515625 63.921875 
L 10.984375 60.40625 
L 10.984375 69.390625 
L 28.421875 72.90625 
L 38.28125 72.90625 
L 38.28125 8.296875 
L 54.390625 8.296875 
L 54.390625 0 
L 12.40625 0 
z
" id="DejaVuSans-31"/>
      </defs>
      <g transform="translate(365.630256 266.598437)scale(0.1 -0.1)">
       <use xlink:href="#DejaVuSans-31"/>
       <use x="63.623047" xlink:href="#DejaVuSans-2e"/>
       <use x="95.410156" xlink:href="#DejaVuSans-30"/>
      </g>
     </g>
    </g>
    <g id="text_7">
     <!-- False Positive Rate -->
     <defs>
      <path d="M 9.8125 72.90625 
L 51.703125 72.90625 
L 51.703125 64.59375 
L 19.671875 64.59375 
L 19.671875 43.109375 
L 48.578125 43.109375 
L 48.578125 34.8125 
L 19.671875 34.8125 
L 19.671875 0 
L 9.8125 0 
z
" id="DejaVuSans-46"/>
      <path d="M 34.28125 27.484375 
Q 23.390625 27.484375 19.1875 25 
Q 14.984375 22.515625 14.984375 16.5 
Q 14.984375 11.71875 18.140625 8.90625 
Q 21.296875 6.109375 26.703125 6.109375 
Q 34.1875 6.109375 38.703125 11.40625 
Q 43.21875 16.703125 43.21875 25.484375 
L 43.21875 27.484375 
z
M 52.203125 31.203125 
L 52.203125 0 
L 43.21875 0 
L 43.21875 8.296875 
Q 40.140625 3.328125 35.546875 0.953125 
Q 30.953125 -1.421875 24.3125 -1.421875 
Q 15.921875 -1.421875 10.953125 3.296875 
Q 6 8.015625 6 15.921875 
Q 6 25.140625 12.171875 29.828125 
Q 18.359375 34.515625 30.609375 34.515625 
L 43.21875 34.515625 
L 43.21875 35.40625 
Q 43.21875 41.609375 39.140625 45 
Q 35.0625 48.390625 27.6875 48.390625 
Q 23 48.390625 18.546875 47.265625 
Q 14.109375 46.140625 10.015625 43.890625 
L 10.015625 52.203125 
Q 14.9375 54.109375 19.578125 55.046875 
Q 24.21875 56 28.609375 56 
Q 40.484375 56 46.34375 49.84375 
Q 52.203125 43.703125 52.203125 31.203125 
z
" id="DejaVuSans-61"/>
      <path d="M 9.421875 75.984375 
L 18.40625 75.984375 
L 18.40625 0 
L 9.421875 0 
z
" id="DejaVuSans-6c"/>
      <path d="M 44.28125 53.078125 
L 44.28125 44.578125 
Q 40.484375 46.53125 36.375 47.5 
Q 32.28125 48.484375 27.875 48.484375 
Q 21.1875 48.484375 17.84375 46.4375 
Q 14.5 44.390625 14.5 40.28125 
Q 14.5 37.15625 16.890625 35.375 
Q 19.28125 33.59375 26.515625 31.984375 
L 29.59375 31.296875 
Q 39.15625 29.25 43.1875 25.515625 
Q 47.21875 21.78125 47.21875 15.09375 
Q 47.21875 7.46875 41.1875 3.015625 
Q 35.15625 -1.421875 24.609375 -1.421875 
Q 20.21875 -1.421875 15.453125 -0.5625 
Q 10.6875 0.296875 5.421875 2 
L 5.421875 11.28125 
Q 10.40625 8.6875 15.234375 7.390625 
Q 20.0625 6.109375 24.8125 6.109375 
Q 31.15625 6.109375 34.5625 8.28125 
Q 37.984375 10.453125 37.984375 14.40625 
Q 37.984375 18.0625 35.515625 20.015625 
Q 33.0625 21.96875 24.703125 23.78125 
L 21.578125 24.515625 
Q 13.234375 26.265625 9.515625 29.90625 
Q 5.8125 33.546875 5.8125 39.890625 
Q 5.8125 47.609375 11.28125 51.796875 
Q 16.75 56 26.8125 56 
Q 31.78125 56 36.171875 55.265625 
Q 40.578125 54.546875 44.28125 53.078125 
z
" id="DejaVuSans-73"/>
      <path d="M 56.203125 29.59375 
L 56.203125 25.203125 
L 14.890625 25.203125 
Q 15.484375 15.921875 20.484375 11.0625 
Q 25.484375 6.203125 34.421875 6.203125 
Q 39.59375 6.203125 44.453125 7.46875 
Q 49.3125 8.734375 54.109375 11.28125 
L 54.109375 2.78125 
Q 49.265625 0.734375 44.1875 -0.34375 
Q 39.109375 -1.421875 33.890625 -1.421875 
Q 20.796875 -1.421875 13.15625 6.1875 
Q 5.515625 13.8125 5.515625 26.8125 
Q 5.515625 40.234375 12.765625 48.109375 
Q 20.015625 56 32.328125 56 
Q 43.359375 56 49.78125 48.890625 
Q 56.203125 41.796875 56.203125 29.59375 
z
M 47.21875 32.234375 
Q 47.125 39.59375 43.09375 43.984375 
Q 39.0625 48.390625 32.421875 48.390625 
Q 24.90625 48.390625 20.390625 44.140625 
Q 15.875 39.890625 15.1875 32.171875 
z
" id="DejaVuSans-65"/>
      <path id="DejaVuSans-20"/>
      <path d="M 19.671875 64.796875 
L 19.671875 37.40625 
L 32.078125 37.40625 
Q 38.96875 37.40625 42.71875 40.96875 
Q 46.484375 44.53125 46.484375 51.125 
Q 46.484375 57.671875 42.71875 61.234375 
Q 38.96875 64.796875 32.078125 64.796875 
z
M 9.8125 72.90625 
L 32.078125 72.90625 
Q 44.34375 72.90625 50.609375 67.359375 
Q 56.890625 61.8125 56.890625 51.125 
Q 56.890625 40.328125 50.609375 34.8125 
Q 44.34375 29.296875 32.078125 29.296875 
L 19.671875 29.296875 
L 19.671875 0 
L 9.8125 0 
z
" id="DejaVuSans-50"/>
      <path d="M 30.609375 48.390625 
Q 23.390625 48.390625 19.1875 42.75 
Q 14.984375 37.109375 14.984375 27.296875 
Q 14.984375 17.484375 19.15625 11.84375 
Q 23.34375 6.203125 30.609375 6.203125 
Q 37.796875 6.203125 41.984375 11.859375 
Q 46.1875 17.53125 46.1875 27.296875 
Q 46.1875 37.015625 41.984375 42.703125 
Q 37.796875 48.390625 30.609375 48.390625 
z
M 30.609375 56 
Q 42.328125 56 49.015625 48.375 
Q 55.71875 40.765625 55.71875 27.296875 
Q 55.71875 13.875 49.015625 6.21875 
Q 42.328125 -1.421875 30.609375 -1.421875 
Q 18.84375 -1.421875 12.171875 6.21875 
Q 5.515625 13.875 5.515625 27.296875 
Q 5.515625 40.765625 12.171875 48.375 
Q 18.84375 56 30.609375 56 
z
" id="DejaVuSans-6f"/>
      <path d="M 9.421875 54.6875 
L 18.40625 54.6875 
L 18.40625 0 
L 9.421875 0 
z
M 9.421875 75.984375 
L 18.40625 75.984375 
L 18.40625 64.59375 
L 9.421875 64.59375 
z
" id="DejaVuSans-69"/>
      <path d="M 18.3125 70.21875 
L 18.3125 54.6875 
L 36.8125 54.6875 
L 36.8125 47.703125 
L 18.3125 47.703125 
L 18.3125 18.015625 
Q 18.3125 11.328125 20.140625 9.421875 
Q 21.96875 7.515625 27.59375 7.515625 
L 36.8125 7.515625 
L 36.8125 0 
L 27.59375 0 
Q 17.1875 0 13.234375 3.875 
Q 9.28125 7.765625 9.28125 18.015625 
L 9.28125 47.703125 
L 2.6875 47.703125 
L 2.6875 54.6875 
L 9.28125 54.6875 
L 9.28125 70.21875 
z
" id="DejaVuSans-74"/>
      <path d="M 2.984375 54.6875 
L 12.5 54.6875 
L 29.59375 8.796875 
L 46.6875 54.6875 
L 56.203125 54.6875 
L 35.6875 0 
L 23.484375 0 
z
" id="DejaVuSans-76"/>
      <path d="M 44.390625 34.1875 
Q 47.5625 33.109375 50.5625 29.59375 
Q 53.5625 26.078125 56.59375 19.921875 
L 66.609375 0 
L 56 0 
L 46.6875 18.703125 
Q 43.0625 26.03125 39.671875 28.421875 
Q 36.28125 30.8125 30.421875 30.8125 
L 19.671875 30.8125 
L 19.671875 0 
L 9.8125 0 
L 9.8125 72.90625 
L 32.078125 72.90625 
Q 44.578125 72.90625 50.734375 67.671875 
Q 56.890625 62.453125 56.890625 51.90625 
Q 56.890625 45.015625 53.6875 40.46875 
Q 50.484375 35.9375 44.390625 34.1875 
z
M 19.671875 64.796875 
L 19.671875 38.921875 
L 32.078125 38.921875 
Q 39.203125 38.921875 42.84375 42.21875 
Q 46.484375 45.515625 46.484375 51.90625 
Q 46.484375 58.296875 42.84375 61.546875 
Q 39.203125 64.796875 32.078125 64.796875 
z
" id="DejaVuSans-52"/>
     </defs>
     <g transform="translate(174.194531 280.276563)scale(0.1 -0.1)">
      <use xlink:href="#DejaVuSans-46"/>
      <use x="57.378906" xlink:href="#DejaVuSans-61"/>
      <use x="118.658203" xlink:href="#DejaVuSans-6c"/>
      <use x="146.441406" xlink:href="#DejaVuSans-73"/>
      <use x="198.541016" xlink:href="#DejaVuSans-65"/>
      <use x="260.064453" xlink:href="#DejaVuSans-20"/>
      <use x="291.851562" xlink:href="#DejaVuSans-50"/>
      <use x="352.107422" xlink:href="#DejaVuSans-6f"/>
      <use x="413.289062" xlink:href="#DejaVuSans-73"/>
      <use x="465.388672" xlink:href="#DejaVuSans-69"/>
      <use x="493.171875" xlink:href="#DejaVuSans-74"/>
      <use x="532.380859" xlink:href="#DejaVuSans-69"/>
      <use x="560.164062" xlink:href="#DejaVuSans-76"/>
      <use x="619.34375" xlink:href="#DejaVuSans-65"/>
      <use x="680.867188" xlink:href="#DejaVuSans-20"/>
      <use x="712.654297" xlink:href="#DejaVuSans-52"/>
      <use x="782.105469" xlink:href="#DejaVuSans-61"/>
      <use x="843.384766" xlink:href="#DejaVuSans-74"/>
      <use x="882.59375" xlink:href="#DejaVuSans-65"/>
     </g>
    </g>
   </g>
   <g id="matplotlib.axis_2">
    <g id="ytick_1">
     <g id="line2d_7">
      <defs>
       <path d="M 0 0 
L -3.5 0 
" id="m08ae03cbec" style="stroke:#000000;stroke-width:0.8;"/>
      </defs>
      <g>
       <use style="stroke:#000000;stroke-width:0.8;" x="54" xlink:href="#m08ae03cbec" y="242.116364"/>
      </g>
     </g>
     <g id="text_8">
      <!-- 0.0 -->
      <g transform="translate(31.096875 245.915582)scale(0.1 -0.1)">
       <use xlink:href="#DejaVuSans-30"/>
       <use x="63.623047" xlink:href="#DejaVuSans-2e"/>
       <use x="95.410156" xlink:href="#DejaVuSans-30"/>
      </g>
     </g>
    </g>
    <g id="ytick_2">
     <g id="line2d_8">
      <g>
       <use style="stroke:#000000;stroke-width:0.8;" x="54" xlink:href="#m08ae03cbec" y="202.581818"/>
      </g>
     </g>
     <g id="text_9">
      <!-- 0.2 -->
      <g transform="translate(31.096875 206.381037)scale(0.1 -0.1)">
       <use xlink:href="#DejaVuSans-30"/>
       <use x="63.623047" xlink:href="#DejaVuSans-2e"/>
       <use x="95.410156" xlink:href="#DejaVuSans-32"/>
      </g>
     </g>
    </g>
    <g id="ytick_3">
     <g id="line2d_9">
      <g>
       <use style="stroke:#000000;stroke-width:0.8;" x="54" xlink:href="#m08ae03cbec" y="163.047273"/>
      </g>
     </g>
     <g id="text_10">
      <!-- 0.4 -->
      <g transform="translate(31.096875 166.846491)scale(0.1 -0.1)">
       <use xlink:href="#DejaVuSans-30"/>
       <use x="63.623047" xlink:href="#DejaVuSans-2e"/>
       <use x="95.410156" xlink:href="#DejaVuSans-34"/>
      </g>
     </g>
    </g>
    <g id="ytick_4">
     <g id="line2d_10">
      <g>
       <use style="stroke:#000000;stroke-width:0.8;" x="54" xlink:href="#m08ae03cbec" y="123.512727"/>
      </g>
     </g>
     <g id="text_11">
      <!-- 0.6 -->
      <g transform="translate(31.096875 127.311946)scale(0.1 -0.1)">
       <use xlink:href="#DejaVuSans-30"/>
       <use x="63.623047" xlink:href="#DejaVuSans-2e"/>
       <use x="95.410156" xlink:href="#DejaVuSans-36"/>
      </g>
     </g>
    </g>
    <g id="ytick_5">
     <g id="line2d_11">
      <g>
       <use style="stroke:#000000;stroke-width:0.8;" x="54" xlink:href="#m08ae03cbec" y="83.978182"/>
      </g>
     </g>
     <g id="text_12">
      <!-- 0.8 -->
      <g transform="translate(31.096875 87.777401)scale(0.1 -0.1)">
       <use xlink:href="#DejaVuSans-30"/>
       <use x="63.623047" xlink:href="#DejaVuSans-2e"/>
       <use x="95.410156" xlink:href="#DejaVuSans-38"/>
      </g>
     </g>
    </g>
    <g id="ytick_6">
     <g id="line2d_12">
      <g>
       <use style="stroke:#000000;stroke-width:0.8;" x="54" xlink:href="#m08ae03cbec" y="44.443636"/>
      </g>
     </g>
     <g id="text_13">
      <!-- 1.0 -->
      <g transform="translate(31.096875 48.242855)scale(0.1 -0.1)">
       <use xlink:href="#DejaVuSans-31"/>
       <use x="63.623047" xlink:href="#DejaVuSans-2e"/>
       <use x="95.410156" xlink:href="#DejaVuSans-30"/>
      </g>
     </g>
    </g>
    <g id="text_14">
     <!-- True Positive Rate -->
     <defs>
      <path d="M -0.296875 72.90625 
L 61.375 72.90625 
L 61.375 64.59375 
L 35.5 64.59375 
L 35.5 0 
L 25.59375 0 
L 25.59375 64.59375 
L -0.296875 64.59375 
z
" id="DejaVuSans-54"/>
      <path d="M 41.109375 46.296875 
Q 39.59375 47.171875 37.8125 47.578125 
Q 36.03125 48 33.890625 48 
Q 26.265625 48 22.1875 43.046875 
Q 18.109375 38.09375 18.109375 28.8125 
L 18.109375 0 
L 9.078125 0 
L 9.078125 54.6875 
L 18.109375 54.6875 
L 18.109375 46.1875 
Q 20.953125 51.171875 25.484375 53.578125 
Q 30.03125 56 36.53125 56 
Q 37.453125 56 38.578125 55.875 
Q 39.703125 55.765625 41.0625 55.515625 
z
" id="DejaVuSans-72"/>
      <path d="M 8.5 21.578125 
L 8.5 54.6875 
L 17.484375 54.6875 
L 17.484375 21.921875 
Q 17.484375 14.15625 20.5 10.265625 
Q 23.53125 6.390625 29.59375 6.390625 
Q 36.859375 6.390625 41.078125 11.03125 
Q 45.3125 15.671875 45.3125 23.6875 
L 45.3125 54.6875 
L 54.296875 54.6875 
L 54.296875 0 
L 45.3125 0 
L 45.3125 8.40625 
Q 42.046875 3.421875 37.71875 1 
Q 33.40625 -1.421875 27.6875 -1.421875 
Q 18.265625 -1.421875 13.375 4.4375 
Q 8.5 10.296875 8.5 21.578125 
z
M 31.109375 56 
z
" id="DejaVuSans-75"/>
     </defs>
     <g transform="translate(25.017187 188.826094)rotate(-90)scale(0.1 -0.1)">
      <use xlink:href="#DejaVuSans-54"/>
      <use x="60.865234" xlink:href="#DejaVuSans-72"/>
      <use x="101.978516" xlink:href="#DejaVuSans-75"/>
      <use x="165.357422" xlink:href="#DejaVuSans-65"/>
      <use x="226.880859" xlink:href="#DejaVuSans-20"/>
      <use x="258.667969" xlink:href="#DejaVuSans-50"/>
      <use x="318.923828" xlink:href="#DejaVuSans-6f"/>
      <use x="380.105469" xlink:href="#DejaVuSans-73"/>
      <use x="432.205078" xlink:href="#DejaVuSans-69"/>
      <use x="459.988281" xlink:href="#DejaVuSans-74"/>
      <use x="499.197266" xlink:href="#DejaVuSans-69"/>
      <use x="526.980469" xlink:href="#DejaVuSans-76"/>
      <use x="586.160156" xlink:href="#DejaVuSans-65"/>
      <use x="647.683594" xlink:href="#DejaVuSans-20"/>
      <use x="679.470703" xlink:href="#DejaVuSans-52"/>
      <use x="748.921875" xlink:href="#DejaVuSans-61"/>
      <use x="810.201172" xlink:href="#DejaVuSans-74"/>
      <use x="849.410156" xlink:href="#DejaVuSans-65"/>
     </g>
    </g>
   </g>
   <g id="line2d_13">
    <path clip-path="url(#p4b529f77e4)" d="M 69.218182 232.232727 
L 69.218182 222.349091 
L 83.052893 222.349091 
L 83.052893 182.814545 
L 96.887603 182.814545 
L 96.887603 172.930909 
L 96.887603 153.163636 
L 96.887603 123.512727 
L 124.557025 103.745455 
L 124.557025 93.861818 
L 138.391736 93.861818 
L 152.226446 83.978182 
L 193.730579 83.978182 
L 193.730579 74.094545 
L 221.4 74.094545 
L 235.234711 64.210909 
L 262.904132 64.210909 
L 332.077686 64.210909 
L 332.077686 54.327273 
L 359.747107 54.327273 
L 373.581818 54.327273 
L 373.581818 44.443636 
" style="fill:none;opacity:0.3;stroke:#1f77b4;stroke-linecap:square;"/>
   </g>
   <g id="line2d_14">
    <path clip-path="url(#p4b529f77e4)" d="M 69.218182 242.116364 
L 83.052893 242.116364 
L 83.052893 222.349091 
L 96.887603 222.349091 
L 96.887603 202.581818 
L 110.722314 202.581818 
L 110.722314 192.698182 
L 138.391736 192.698182 
L 138.391736 172.930909 
L 152.226446 172.930909 
L 152.226446 153.163636 
L 166.061157 153.163636 
L 166.061157 123.512727 
L 179.895868 123.512727 
L 179.895868 113.629091 
L 235.234711 113.629091 
L 235.234711 103.745455 
L 276.738843 103.745455 
L 276.738843 64.210909 
L 304.408264 64.210909 
L 304.408264 54.327273 
L 318.242975 44.443636 
L 373.581818 44.443636 
" style="fill:none;opacity:0.3;stroke:#ff7f0e;stroke-linecap:square;"/>
   </g>
   <g id="line2d_15">
    <path clip-path="url(#p4b529f77e4)" d="M 69.218182 232.232727 
L 69.218182 202.581818 
L 83.052893 202.581818 
L 83.052893 143.28 
L 96.887603 143.28 
L 96.887603 123.512727 
L 110.722314 123.512727 
L 110.722314 113.629091 
L 138.391736 113.629091 
L 152.226446 103.745455 
L 152.226446 83.978182 
L 193.730579 83.978182 
L 207.565289 83.978182 
L 207.565289 74.094545 
L 235.234711 74.094545 
L 276.738843 74.094545 
L 304.408264 74.094545 
L 318.242975 64.210909 
L 345.912397 64.210909 
L 345.912397 44.443636 
L 373.581818 44.443636 
" style="fill:none;opacity:0.3;stroke:#2ca02c;stroke-linecap:square;"/>
   </g>
   <g id="line2d_16">
    <path clip-path="url(#p4b529f77e4)" d="M 69.218182 232.232727 
L 69.218182 172.930909 
L 83.711688 172.930909 
L 83.711688 163.047273 
L 112.698701 163.047273 
L 112.698701 153.163636 
L 127.192208 153.163636 
L 127.192208 143.28 
L 141.685714 133.396364 
L 170.672727 133.396364 
L 170.672727 113.629091 
L 214.153247 103.745455 
L 214.153247 93.861818 
L 228.646753 93.861818 
L 228.646753 83.978182 
L 243.14026 83.978182 
L 257.633766 74.094545 
L 257.633766 64.210909 
L 286.620779 64.210909 
L 286.620779 44.443636 
L 373.581818 44.443636 
" style="fill:none;opacity:0.3;stroke:#d62728;stroke-linecap:square;"/>
   </g>
   <g id="line2d_17">
    <path clip-path="url(#p4b529f77e4)" d="M 69.218182 232.232727 
L 69.218182 172.930909 
L 83.711688 172.930909 
L 83.711688 163.047273 
L 141.685714 163.047273 
L 141.685714 133.396364 
L 156.179221 133.396364 
L 185.166234 133.396364 
L 214.153247 113.629091 
L 243.14026 113.629091 
L 243.14026 103.745455 
L 257.633766 93.861818 
L 286.620779 93.861818 
L 286.620779 83.978182 
L 315.607792 83.978182 
L 315.607792 64.210909 
L 344.594805 64.210909 
L 344.594805 44.443636 
L 373.581818 44.443636 
" style="fill:none;opacity:0.3;stroke:#9467bd;stroke-linecap:square;"/>
   </g>
   <g id="line2d_18">
    <path clip-path="url(#p4b529f77e4)" d="M 69.218182 232.232727 
L 69.218182 222.349091 
L 83.711688 222.349091 
L 83.711688 202.581818 
L 83.711688 192.698182 
L 98.205195 192.698182 
L 98.205195 153.163636 
L 127.192208 153.163636 
L 127.192208 133.396364 
L 141.685714 133.396364 
L 141.685714 83.978182 
L 199.65974 83.978182 
L 199.65974 74.094545 
L 228.646753 74.094545 
L 243.14026 74.094545 
L 243.14026 64.210909 
L 257.633766 64.210909 
L 257.633766 54.327273 
L 301.114286 54.327273 
L 301.114286 44.443636 
L 373.581818 44.443636 
" style="fill:none;opacity:0.3;stroke:#8c564b;stroke-linecap:square;"/>
   </g>
   <g id="line2d_19">
    <path clip-path="url(#p4b529f77e4)" d="M 69.218182 232.232727 
L 69.218182 222.349091 
L 98.205195 222.349091 
L 127.192208 222.349091 
L 127.192208 212.465455 
L 127.192208 192.698182 
L 127.192208 123.512727 
L 156.179221 123.512727 
L 156.179221 113.629091 
L 170.672727 113.629091 
L 170.672727 93.861818 
L 185.166234 93.861818 
L 185.166234 83.978182 
L 228.646753 83.978182 
L 228.646753 74.094545 
L 286.620779 74.094545 
L 286.620779 64.210909 
L 315.607792 64.210909 
L 315.607792 54.327273 
L 330.101299 54.327273 
L 330.101299 44.443636 
L 373.581818 44.443636 
" style="fill:none;opacity:0.3;stroke:#e377c2;stroke-linecap:square;"/>
   </g>
   <g id="line2d_20">
    <path clip-path="url(#p4b529f77e4)" d="M 69.218182 231.712536 
L 69.218182 210.90488 
L 83.711688 200.501053 
L 83.711688 179.693397 
L 112.698701 179.693397 
L 112.698701 169.289569 
L 156.179221 169.289569 
L 156.179221 158.885742 
L 170.672727 148.481914 
L 185.166234 148.481914 
L 185.166234 117.270431 
L 214.153247 117.270431 
L 214.153247 106.866603 
L 257.633766 106.866603 
L 257.633766 96.462775 
L 286.620779 96.462775 
L 286.620779 75.65512 
L 286.620779 65.251292 
L 373.581818 65.251292 
L 373.581818 44.443636 
" style="fill:none;opacity:0.3;stroke:#7f7f7f;stroke-linecap:square;"/>
   </g>
   <g id="line2d_21">
    <path clip-path="url(#p4b529f77e4)" d="M 69.218182 242.116364 
L 83.711688 242.116364 
L 98.205195 242.116364 
L 98.205195 231.712536 
L 156.179221 231.712536 
L 156.179221 221.308708 
L 156.179221 200.501053 
L 199.65974 200.501053 
L 199.65974 179.693397 
L 199.65974 158.885742 
L 199.65974 148.481914 
L 214.153247 148.481914 
L 214.153247 138.078086 
L 243.14026 138.078086 
L 243.14026 117.270431 
L 330.101299 117.270431 
L 344.594805 106.866603 
L 344.594805 86.058947 
L 359.088312 86.058947 
L 359.088312 44.443636 
L 373.581818 44.443636 
" style="fill:none;opacity:0.3;stroke:#bcbd22;stroke-linecap:square;"/>
   </g>
   <g id="line2d_22">
    <path clip-path="url(#p4b529f77e4)" d="M 69.218182 242.116364 
L 83.711688 242.116364 
L 98.205195 242.116364 
L 98.205195 231.712536 
L 112.698701 231.712536 
L 127.192208 221.308708 
L 156.179221 221.308708 
L 170.672727 210.90488 
L 170.672727 179.693397 
L 199.65974 179.693397 
L 199.65974 169.289569 
L 243.14026 169.289569 
L 257.633766 148.481914 
L 257.633766 138.078086 
L 272.127273 127.674258 
L 272.127273 106.866603 
L 286.620779 106.866603 
L 286.620779 86.058947 
L 315.607792 86.058947 
L 315.607792 75.65512 
L 330.101299 75.65512 
L 330.101299 65.251292 
L 359.088312 65.251292 
L 373.581818 54.847464 
L 373.581818 44.443636 
" style="fill:none;opacity:0.3;stroke:#17becf;stroke-linecap:square;"/>
   </g>
   <g id="line2d_23">
    <path clip-path="url(#p4b529f77e4)" d="M 69.218182 242.116364 
L 373.581818 44.443636 
" style="fill:none;opacity:0.8;stroke:#ff0000;stroke-dasharray:7.4,3.2;stroke-dashoffset:0;stroke-width:2;"/>
   </g>
   <g id="line2d_24">
    <path clip-path="url(#p4b529f77e4)" d="M 69.218182 242.116364 
L 72.292562 215.053801 
L 75.366942 214.833114 
L 78.441322 214.612426 
L 81.515702 214.391739 
L 84.590083 195.351158 
L 87.664463 195.351158 
L 90.738843 195.351158 
L 93.813223 195.351158 
L 96.887603 185.467522 
L 99.961983 179.213665 
L 103.036364 178.994029 
L 106.110744 178.774392 
L 109.185124 178.554756 
L 112.259504 176.358392 
L 115.333884 173.920849 
L 118.408264 173.480525 
L 121.482645 173.040202 
L 124.557025 171.611515 
L 127.631405 158.543676 
L 130.705785 158.334023 
L 133.780165 158.124371 
L 136.854545 157.914718 
L 139.928926 155.508701 
L 143.003306 147.042718 
L 146.077686 146.603445 
L 149.152066 146.164172 
L 152.226446 141.771445 
L 155.300826 141.771445 
L 158.375207 136.306283 
L 161.449587 135.864908 
L 164.523967 135.423534 
L 167.598347 132.017068 
L 170.672727 124.501091 
L 173.747107 124.431207 
L 176.821488 124.361322 
L 179.895868 123.303074 
L 182.970248 123.23319 
L 186.044628 118.993893 
L 189.119008 118.714356 
L 192.193388 118.434819 
L 195.267769 117.166918 
L 198.342149 116.887381 
L 201.416529 109.377183 
L 204.490909 109.097646 
L 207.565289 107.829745 
L 210.639669 107.550208 
L 213.71405 107.270671 
L 216.78843 104.161608 
L 219.86281 104.161608 
L 222.93719 104.051789 
L 226.01157 103.832153 
L 229.08595 101.635789 
L 232.160331 101.416153 
L 235.234711 100.208153 
L 238.309091 100.208153 
L 241.383471 100.208153 
L 244.457851 95.781797 
L 247.532231 94.921117 
L 250.606612 94.060437 
L 253.680992 93.199756 
L 256.755372 92.339076 
L 259.829752 87.878041 
L 262.904132 87.657354 
L 265.978512 87.436666 
L 269.052893 87.215979 
L 272.127273 84.914526 
L 275.201653 84.914526 
L 278.276033 80.961072 
L 281.350413 80.961072 
L 284.424793 80.961072 
L 287.499174 71.805703 
L 290.573554 71.805703 
L 293.647934 71.805703 
L 296.722314 71.805703 
L 299.796694 71.805703 
L 302.871074 70.81734 
L 305.945455 69.60934 
L 309.019835 69.170067 
L 312.094215 68.730794 
L 315.168595 68.291522 
L 318.242975 63.846775 
L 321.317355 63.846775 
L 324.391736 63.846775 
L 327.466116 63.846775 
L 330.540496 61.786502 
L 333.614876 60.577451 
L 336.689256 60.356764 
L 339.763636 60.136077 
L 342.838017 59.915389 
L 345.912397 53.755062 
L 348.986777 53.755062 
L 352.061157 53.755062 
L 355.135537 53.755062 
L 358.209917 53.755062 
L 361.284298 49.435897 
L 364.358678 49.21521 
L 367.433058 48.994523 
L 370.507438 48.773836 
L 373.581818 44.443636 
" style="fill:none;opacity:0.8;stroke:#0000ff;stroke-linecap:square;stroke-width:2;"/>
   </g>
   <g id="patch_3">
    <path d="M 54 252 
L 54 34.56 
" style="fill:none;stroke:#000000;stroke-linecap:square;stroke-linejoin:miter;stroke-width:0.8;"/>
   </g>
   <g id="patch_4">
    <path d="M 388.8 252 
L 388.8 34.56 
" style="fill:none;stroke:#000000;stroke-linecap:square;stroke-linejoin:miter;stroke-width:0.8;"/>
   </g>
   <g id="patch_5">
    <path d="M 54 252 
L 388.8 252 
" style="fill:none;stroke:#000000;stroke-linecap:square;stroke-linejoin:miter;stroke-width:0.8;"/>
   </g>
   <g id="patch_6">
    <path d="M 54 34.56 
L 388.8 34.56 
" style="fill:none;stroke:#000000;stroke-linecap:square;stroke-linejoin:miter;stroke-width:0.8;"/>
   </g>
   <g id="text_15">
    <!-- Diabetic Status RF Classifier ROC -->
    <defs>
     <path d="M 19.671875 64.796875 
L 19.671875 8.109375 
L 31.59375 8.109375 
Q 46.6875 8.109375 53.6875 14.9375 
Q 60.6875 21.78125 60.6875 36.53125 
Q 60.6875 51.171875 53.6875 57.984375 
Q 46.6875 64.796875 31.59375 64.796875 
z
M 9.8125 72.90625 
L 30.078125 72.90625 
Q 51.265625 72.90625 61.171875 64.09375 
Q 71.09375 55.28125 71.09375 36.53125 
Q 71.09375 17.671875 61.125 8.828125 
Q 51.171875 0 30.078125 0 
L 9.8125 0 
z
" id="DejaVuSans-44"/>
     <path d="M 48.6875 27.296875 
Q 48.6875 37.203125 44.609375 42.84375 
Q 40.53125 48.484375 33.40625 48.484375 
Q 26.265625 48.484375 22.1875 42.84375 
Q 18.109375 37.203125 18.109375 27.296875 
Q 18.109375 17.390625 22.1875 11.75 
Q 26.265625 6.109375 33.40625 6.109375 
Q 40.53125 6.109375 44.609375 11.75 
Q 48.6875 17.390625 48.6875 27.296875 
z
M 18.109375 46.390625 
Q 20.953125 51.265625 25.265625 53.625 
Q 29.59375 56 35.59375 56 
Q 45.5625 56 51.78125 48.09375 
Q 58.015625 40.1875 58.015625 27.296875 
Q 58.015625 14.40625 51.78125 6.484375 
Q 45.5625 -1.421875 35.59375 -1.421875 
Q 29.59375 -1.421875 25.265625 0.953125 
Q 20.953125 3.328125 18.109375 8.203125 
L 18.109375 0 
L 9.078125 0 
L 9.078125 75.984375 
L 18.109375 75.984375 
z
" id="DejaVuSans-62"/>
     <path d="M 48.78125 52.59375 
L 48.78125 44.1875 
Q 44.96875 46.296875 41.140625 47.34375 
Q 37.3125 48.390625 33.40625 48.390625 
Q 24.65625 48.390625 19.8125 42.84375 
Q 14.984375 37.3125 14.984375 27.296875 
Q 14.984375 17.28125 19.8125 11.734375 
Q 24.65625 6.203125 33.40625 6.203125 
Q 37.3125 6.203125 41.140625 7.25 
Q 44.96875 8.296875 48.78125 10.40625 
L 48.78125 2.09375 
Q 45.015625 0.34375 40.984375 -0.53125 
Q 36.96875 -1.421875 32.421875 -1.421875 
Q 20.0625 -1.421875 12.78125 6.34375 
Q 5.515625 14.109375 5.515625 27.296875 
Q 5.515625 40.671875 12.859375 48.328125 
Q 20.21875 56 33.015625 56 
Q 37.15625 56 41.109375 55.140625 
Q 45.0625 54.296875 48.78125 52.59375 
z
" id="DejaVuSans-63"/>
     <path d="M 53.515625 70.515625 
L 53.515625 60.890625 
Q 47.90625 63.578125 42.921875 64.890625 
Q 37.9375 66.21875 33.296875 66.21875 
Q 25.25 66.21875 20.875 63.09375 
Q 16.5 59.96875 16.5 54.203125 
Q 16.5 49.359375 19.40625 46.890625 
Q 22.3125 44.4375 30.421875 42.921875 
L 36.375 41.703125 
Q 47.40625 39.59375 52.65625 34.296875 
Q 57.90625 29 57.90625 20.125 
Q 57.90625 9.515625 50.796875 4.046875 
Q 43.703125 -1.421875 29.984375 -1.421875 
Q 24.8125 -1.421875 18.96875 -0.25 
Q 13.140625 0.921875 6.890625 3.21875 
L 6.890625 13.375 
Q 12.890625 10.015625 18.65625 8.296875 
Q 24.421875 6.59375 29.984375 6.59375 
Q 38.421875 6.59375 43.015625 9.90625 
Q 47.609375 13.234375 47.609375 19.390625 
Q 47.609375 24.75 44.3125 27.78125 
Q 41.015625 30.8125 33.5 32.328125 
L 27.484375 33.5 
Q 16.453125 35.6875 11.515625 40.375 
Q 6.59375 45.0625 6.59375 53.421875 
Q 6.59375 63.09375 13.40625 68.65625 
Q 20.21875 74.21875 32.171875 74.21875 
Q 37.3125 74.21875 42.625 73.28125 
Q 47.953125 72.359375 53.515625 70.515625 
z
" id="DejaVuSans-53"/>
     <path d="M 64.40625 67.28125 
L 64.40625 56.890625 
Q 59.421875 61.53125 53.78125 63.8125 
Q 48.140625 66.109375 41.796875 66.109375 
Q 29.296875 66.109375 22.65625 58.46875 
Q 16.015625 50.828125 16.015625 36.375 
Q 16.015625 21.96875 22.65625 14.328125 
Q 29.296875 6.6875 41.796875 6.6875 
Q 48.140625 6.6875 53.78125 8.984375 
Q 59.421875 11.28125 64.40625 15.921875 
L 64.40625 5.609375 
Q 59.234375 2.09375 53.4375 0.328125 
Q 47.65625 -1.421875 41.21875 -1.421875 
Q 24.65625 -1.421875 15.125 8.703125 
Q 5.609375 18.84375 5.609375 36.375 
Q 5.609375 53.953125 15.125 64.078125 
Q 24.65625 74.21875 41.21875 74.21875 
Q 47.75 74.21875 53.53125 72.484375 
Q 59.328125 70.75 64.40625 67.28125 
z
" id="DejaVuSans-43"/>
     <path d="M 37.109375 75.984375 
L 37.109375 68.5 
L 28.515625 68.5 
Q 23.6875 68.5 21.796875 66.546875 
Q 19.921875 64.59375 19.921875 59.515625 
L 19.921875 54.6875 
L 34.71875 54.6875 
L 34.71875 47.703125 
L 19.921875 47.703125 
L 19.921875 0 
L 10.890625 0 
L 10.890625 47.703125 
L 2.296875 47.703125 
L 2.296875 54.6875 
L 10.890625 54.6875 
L 10.890625 58.5 
Q 10.890625 67.625 15.140625 71.796875 
Q 19.390625 75.984375 28.609375 75.984375 
z
" id="DejaVuSans-66"/>
     <path d="M 39.40625 66.21875 
Q 28.65625 66.21875 22.328125 58.203125 
Q 16.015625 50.203125 16.015625 36.375 
Q 16.015625 22.609375 22.328125 14.59375 
Q 28.65625 6.59375 39.40625 6.59375 
Q 50.140625 6.59375 56.421875 14.59375 
Q 62.703125 22.609375 62.703125 36.375 
Q 62.703125 50.203125 56.421875 58.203125 
Q 50.140625 66.21875 39.40625 66.21875 
z
M 39.40625 74.21875 
Q 54.734375 74.21875 63.90625 63.9375 
Q 73.09375 53.65625 73.09375 36.375 
Q 73.09375 19.140625 63.90625 8.859375 
Q 54.734375 -1.421875 39.40625 -1.421875 
Q 24.03125 -1.421875 14.8125 8.828125 
Q 5.609375 19.09375 5.609375 36.375 
Q 5.609375 53.65625 14.8125 63.9375 
Q 24.03125 74.21875 39.40625 74.21875 
z
" id="DejaVuSans-4f"/>
    </defs>
    <g transform="translate(121.780313 28.56)scale(0.12 -0.12)">
     <use xlink:href="#DejaVuSans-44"/>
     <use x="77.001953" xlink:href="#DejaVuSans-69"/>
     <use x="104.785156" xlink:href="#DejaVuSans-61"/>
     <use x="166.064453" xlink:href="#DejaVuSans-62"/>
     <use x="229.541016" xlink:href="#DejaVuSans-65"/>
     <use x="291.064453" xlink:href="#DejaVuSans-74"/>
     <use x="330.273438" xlink:href="#DejaVuSans-69"/>
     <use x="358.056641" xlink:href="#DejaVuSans-63"/>
     <use x="413.037109" xlink:href="#DejaVuSans-20"/>
     <use x="444.824219" xlink:href="#DejaVuSans-53"/>
     <use x="508.300781" xlink:href="#DejaVuSans-74"/>
     <use x="547.509766" xlink:href="#DejaVuSans-61"/>
     <use x="608.789062" xlink:href="#DejaVuSans-74"/>
     <use x="647.998047" xlink:href="#DejaVuSans-75"/>
     <use x="711.376953" xlink:href="#DejaVuSans-73"/>
     <use x="763.476562" xlink:href="#DejaVuSans-20"/>
     <use x="795.263672" xlink:href="#DejaVuSans-52"/>
     <use x="864.746094" xlink:href="#DejaVuSans-46"/>
     <use x="922.265625" xlink:href="#DejaVuSans-20"/>
     <use x="954.052734" xlink:href="#DejaVuSans-43"/>
     <use x="1023.876953" xlink:href="#DejaVuSans-6c"/>
     <use x="1051.660156" xlink:href="#DejaVuSans-61"/>
     <use x="1112.939453" xlink:href="#DejaVuSans-73"/>
     <use x="1165.039062" xlink:href="#DejaVuSans-73"/>
     <use x="1217.138672" xlink:href="#DejaVuSans-69"/>
     <use x="1244.921875" xlink:href="#DejaVuSans-66"/>
     <use x="1280.126953" xlink:href="#DejaVuSans-69"/>
     <use x="1307.910156" xlink:href="#DejaVuSans-65"/>
     <use x="1369.433594" xlink:href="#DejaVuSans-72"/>
     <use x="1410.546875" xlink:href="#DejaVuSans-20"/>
     <use x="1442.333984" xlink:href="#DejaVuSans-52"/>
     <use x="1511.816406" xlink:href="#DejaVuSans-4f"/>
     <use x="1590.527344" xlink:href="#DejaVuSans-43"/>
    </g>
   </g>
   <g id="legend_1">
    <g id="patch_7">
     <path d="M 191.4 247 
L 381.8 247 
Q 383.8 247 383.8 245 
L 383.8 201.965625 
Q 383.8 199.965625 381.8 199.965625 
L 191.4 199.965625 
Q 189.4 199.965625 189.4 201.965625 
L 189.4 245 
Q 189.4 247 191.4 247 
z
" style="fill:#ffffff;opacity:0.8;stroke:#cccccc;stroke-linejoin:miter;"/>
    </g>
    <g id="line2d_25">
     <path d="M 193.4 208.064063 
L 213.4 208.064063 
" style="fill:none;opacity:0.8;stroke:#ff0000;stroke-dasharray:7.4,3.2;stroke-dashoffset:0;stroke-width:2;"/>
    </g>
    <g id="line2d_26"/>
    <g id="text_16">
     <!-- AUC = 0.5 -->
     <defs>
      <path d="M 34.1875 63.1875 
L 20.796875 26.90625 
L 47.609375 26.90625 
z
M 28.609375 72.90625 
L 39.796875 72.90625 
L 67.578125 0 
L 57.328125 0 
L 50.6875 18.703125 
L 17.828125 18.703125 
L 11.1875 0 
L 0.78125 0 
z
" id="DejaVuSans-41"/>
      <path d="M 8.6875 72.90625 
L 18.609375 72.90625 
L 18.609375 28.609375 
Q 18.609375 16.890625 22.84375 11.734375 
Q 27.09375 6.59375 36.625 6.59375 
Q 46.09375 6.59375 50.34375 11.734375 
Q 54.59375 16.890625 54.59375 28.609375 
L 54.59375 72.90625 
L 64.5 72.90625 
L 64.5 27.390625 
Q 64.5 13.140625 57.4375 5.859375 
Q 50.390625 -1.421875 36.625 -1.421875 
Q 22.796875 -1.421875 15.734375 5.859375 
Q 8.6875 13.140625 8.6875 27.390625 
z
" id="DejaVuSans-55"/>
      <path d="M 10.59375 45.40625 
L 73.1875 45.40625 
L 73.1875 37.203125 
L 10.59375 37.203125 
z
M 10.59375 25.484375 
L 73.1875 25.484375 
L 73.1875 17.1875 
L 10.59375 17.1875 
z
" id="DejaVuSans-3d"/>
      <path d="M 10.796875 72.90625 
L 49.515625 72.90625 
L 49.515625 64.59375 
L 19.828125 64.59375 
L 19.828125 46.734375 
Q 21.96875 47.46875 24.109375 47.828125 
Q 26.265625 48.1875 28.421875 48.1875 
Q 40.625 48.1875 47.75 41.5 
Q 54.890625 34.8125 54.890625 23.390625 
Q 54.890625 11.625 47.5625 5.09375 
Q 40.234375 -1.421875 26.90625 -1.421875 
Q 22.3125 -1.421875 17.546875 -0.640625 
Q 12.796875 0.140625 7.71875 1.703125 
L 7.71875 11.625 
Q 12.109375 9.234375 16.796875 8.0625 
Q 21.484375 6.890625 26.703125 6.890625 
Q 35.15625 6.890625 40.078125 11.328125 
Q 45.015625 15.765625 45.015625 23.390625 
Q 45.015625 31 40.078125 35.4375 
Q 35.15625 39.890625 26.703125 39.890625 
Q 22.75 39.890625 18.8125 39.015625 
Q 14.890625 38.140625 10.796875 36.28125 
z
" id="DejaVuSans-35"/>
     </defs>
     <g transform="translate(221.4 211.564063)scale(0.1 -0.1)">
      <use xlink:href="#DejaVuSans-41"/>
      <use x="68.408203" xlink:href="#DejaVuSans-55"/>
      <use x="141.601562" xlink:href="#DejaVuSans-43"/>
      <use x="211.425781" xlink:href="#DejaVuSans-20"/>
      <use x="243.212891" xlink:href="#DejaVuSans-3d"/>
      <use x="327.001953" xlink:href="#DejaVuSans-20"/>
      <use x="358.789062" xlink:href="#DejaVuSans-30"/>
      <use x="422.412109" xlink:href="#DejaVuSans-2e"/>
      <use x="454.199219" xlink:href="#DejaVuSans-35"/>
     </g>
    </g>
    <g id="line2d_27">
     <path d="M 193.4 222.742188 
L 213.4 222.742188 
" style="fill:none;opacity:0.8;stroke:#0000ff;stroke-linecap:square;stroke-width:2;"/>
    </g>
    <g id="line2d_28"/>
    <g id="text_17">
     <!-- Mean ROC (AUC = 0.65 $\pm$ 0.13) -->
     <defs>
      <path d="M 9.8125 72.90625 
L 24.515625 72.90625 
L 43.109375 23.296875 
L 61.8125 72.90625 
L 76.515625 72.90625 
L 76.515625 0 
L 66.890625 0 
L 66.890625 64.015625 
L 48.09375 14.015625 
L 38.1875 14.015625 
L 19.390625 64.015625 
L 19.390625 0 
L 9.8125 0 
z
" id="DejaVuSans-4d"/>
      <path d="M 54.890625 33.015625 
L 54.890625 0 
L 45.90625 0 
L 45.90625 32.71875 
Q 45.90625 40.484375 42.875 44.328125 
Q 39.84375 48.1875 33.796875 48.1875 
Q 26.515625 48.1875 22.3125 43.546875 
Q 18.109375 38.921875 18.109375 30.90625 
L 18.109375 0 
L 9.078125 0 
L 9.078125 54.6875 
L 18.109375 54.6875 
L 18.109375 46.1875 
Q 21.34375 51.125 25.703125 53.5625 
Q 30.078125 56 35.796875 56 
Q 45.21875 56 50.046875 50.171875 
Q 54.890625 44.34375 54.890625 33.015625 
z
" id="DejaVuSans-6e"/>
      <path d="M 31 75.875 
Q 24.46875 64.65625 21.28125 53.65625 
Q 18.109375 42.671875 18.109375 31.390625 
Q 18.109375 20.125 21.3125 9.0625 
Q 24.515625 -2 31 -13.1875 
L 23.1875 -13.1875 
Q 15.875 -1.703125 12.234375 9.375 
Q 8.59375 20.453125 8.59375 31.390625 
Q 8.59375 42.28125 12.203125 53.3125 
Q 15.828125 64.359375 23.1875 75.875 
z
" id="DejaVuSans-28"/>
      <path d="M 46 62.703125 
L 46 43.796875 
L 73.1875 43.796875 
L 73.1875 35.5 
L 46 35.5 
L 46 16.609375 
L 37.796875 16.609375 
L 37.796875 35.5 
L 10.59375 35.5 
L 10.59375 43.796875 
L 37.796875 43.796875 
L 37.796875 62.703125 
z
M 10.59375 8.296875 
L 73.1875 8.296875 
L 73.1875 0 
L 10.59375 0 
z
" id="DejaVuSans-b1"/>
      <path d="M 40.578125 39.3125 
Q 47.65625 37.796875 51.625 33 
Q 55.609375 28.21875 55.609375 21.1875 
Q 55.609375 10.40625 48.1875 4.484375 
Q 40.765625 -1.421875 27.09375 -1.421875 
Q 22.515625 -1.421875 17.65625 -0.515625 
Q 12.796875 0.390625 7.625 2.203125 
L 7.625 11.71875 
Q 11.71875 9.328125 16.59375 8.109375 
Q 21.484375 6.890625 26.8125 6.890625 
Q 36.078125 6.890625 40.9375 10.546875 
Q 45.796875 14.203125 45.796875 21.1875 
Q 45.796875 27.640625 41.28125 31.265625 
Q 36.765625 34.90625 28.71875 34.90625 
L 20.21875 34.90625 
L 20.21875 43.015625 
L 29.109375 43.015625 
Q 36.375 43.015625 40.234375 45.921875 
Q 44.09375 48.828125 44.09375 54.296875 
Q 44.09375 59.90625 40.109375 62.90625 
Q 36.140625 65.921875 28.71875 65.921875 
Q 24.65625 65.921875 20.015625 65.03125 
Q 15.375 64.15625 9.8125 62.3125 
L 9.8125 71.09375 
Q 15.4375 72.65625 20.34375 73.4375 
Q 25.25 74.21875 29.59375 74.21875 
Q 40.828125 74.21875 47.359375 69.109375 
Q 53.90625 64.015625 53.90625 55.328125 
Q 53.90625 49.265625 50.4375 45.09375 
Q 46.96875 40.921875 40.578125 39.3125 
z
" id="DejaVuSans-33"/>
      <path d="M 8.015625 75.875 
L 15.828125 75.875 
Q 23.140625 64.359375 26.78125 53.3125 
Q 30.421875 42.28125 30.421875 31.390625 
Q 30.421875 20.453125 26.78125 9.375 
Q 23.140625 -1.703125 15.828125 -13.1875 
L 8.015625 -13.1875 
Q 14.5 -2 17.703125 9.0625 
Q 20.90625 20.125 20.90625 31.390625 
Q 20.90625 42.671875 17.703125 53.65625 
Q 14.5 64.65625 8.015625 75.875 
z
" id="DejaVuSans-29"/>
     </defs>
     <g transform="translate(221.4 226.242188)scale(0.1 -0.1)">
      <use transform="translate(0 0.125)" xlink:href="#DejaVuSans-4d"/>
      <use transform="translate(86.279297 0.125)" xlink:href="#DejaVuSans-65"/>
      <use transform="translate(147.802734 0.125)" xlink:href="#DejaVuSans-61"/>
      <use transform="translate(209.082031 0.125)" xlink:href="#DejaVuSans-6e"/>
      <use transform="translate(272.460938 0.125)" xlink:href="#DejaVuSans-20"/>
      <use transform="translate(304.248047 0.125)" xlink:href="#DejaVuSans-52"/>
      <use transform="translate(373.730469 0.125)" xlink:href="#DejaVuSans-4f"/>
      <use transform="translate(452.441406 0.125)" xlink:href="#DejaVuSans-43"/>
      <use transform="translate(522.265625 0.125)" xlink:href="#DejaVuSans-20"/>
      <use transform="translate(554.052734 0.125)" xlink:href="#DejaVuSans-28"/>
      <use transform="translate(593.066406 0.125)" xlink:href="#DejaVuSans-41"/>
      <use transform="translate(661.474609 0.125)" xlink:href="#DejaVuSans-55"/>
      <use transform="translate(734.667969 0.125)" xlink:href="#DejaVuSans-43"/>
      <use transform="translate(804.492188 0.125)" xlink:href="#DejaVuSans-20"/>
      <use transform="translate(836.279297 0.125)" xlink:href="#DejaVuSans-3d"/>
      <use transform="translate(920.068359 0.125)" xlink:href="#DejaVuSans-20"/>
      <use transform="translate(951.855469 0.125)" xlink:href="#DejaVuSans-30"/>
      <use transform="translate(1015.478516 0.125)" xlink:href="#DejaVuSans-2e"/>
      <use transform="translate(1047.265625 0.125)" xlink:href="#DejaVuSans-36"/>
      <use transform="translate(1110.888672 0.125)" xlink:href="#DejaVuSans-35"/>
      <use transform="translate(1174.511719 0.125)" xlink:href="#DejaVuSans-20"/>
      <use transform="translate(1206.298828 0.125)" xlink:href="#DejaVuSans-b1"/>
      <use transform="translate(1290.087891 0.125)" xlink:href="#DejaVuSans-20"/>
      <use transform="translate(1321.875 0.125)" xlink:href="#DejaVuSans-30"/>
      <use transform="translate(1385.498047 0.125)" xlink:href="#DejaVuSans-2e"/>
      <use transform="translate(1417.285156 0.125)" xlink:href="#DejaVuSans-31"/>
      <use transform="translate(1480.908203 0.125)" xlink:href="#DejaVuSans-33"/>
      <use transform="translate(1544.53125 0.125)" xlink:href="#DejaVuSans-29"/>
     </g>
    </g>
    <g id="patch_8">
     <path d="M 193.4 240.920313 
L 213.4 240.920313 
L 213.4 233.920313 
L 193.4 233.920313 
z
" style="fill:#808080;opacity:0.2;stroke:#808080;stroke-linejoin:miter;"/>
    </g>
    <g id="text_18">
     <!-- $\pm$ 1 std. dev. -->
     <defs>
      <path d="M 45.40625 46.390625 
L 45.40625 75.984375 
L 54.390625 75.984375 
L 54.390625 0 
L 45.40625 0 
L 45.40625 8.203125 
Q 42.578125 3.328125 38.25 0.953125 
Q 33.9375 -1.421875 27.875 -1.421875 
Q 17.96875 -1.421875 11.734375 6.484375 
Q 5.515625 14.40625 5.515625 27.296875 
Q 5.515625 40.1875 11.734375 48.09375 
Q 17.96875 56 27.875 56 
Q 33.9375 56 38.25 53.625 
Q 42.578125 51.265625 45.40625 46.390625 
z
M 14.796875 27.296875 
Q 14.796875 17.390625 18.875 11.75 
Q 22.953125 6.109375 30.078125 6.109375 
Q 37.203125 6.109375 41.296875 11.75 
Q 45.40625 17.390625 45.40625 27.296875 
Q 45.40625 37.203125 41.296875 42.84375 
Q 37.203125 48.484375 30.078125 48.484375 
Q 22.953125 48.484375 18.875 42.84375 
Q 14.796875 37.203125 14.796875 27.296875 
z
" id="DejaVuSans-64"/>
     </defs>
     <g transform="translate(221.4 240.920313)scale(0.1 -0.1)">
      <use transform="translate(0 0.015625)" xlink:href="#DejaVuSans-b1"/>
      <use transform="translate(83.789062 0.015625)" xlink:href="#DejaVuSans-20"/>
      <use transform="translate(115.576172 0.015625)" xlink:href="#DejaVuSans-31"/>
      <use transform="translate(179.199219 0.015625)" xlink:href="#DejaVuSans-20"/>
      <use transform="translate(210.986328 0.015625)" xlink:href="#DejaVuSans-73"/>
      <use transform="translate(263.085938 0.015625)" xlink:href="#DejaVuSans-74"/>
      <use transform="translate(302.294922 0.015625)" xlink:href="#DejaVuSans-64"/>
      <use transform="translate(365.771484 0.015625)" xlink:href="#DejaVuSans-2e"/>
      <use transform="translate(397.558594 0.015625)" xlink:href="#DejaVuSans-20"/>
      <use transform="translate(429.345703 0.015625)" xlink:href="#DejaVuSans-64"/>
      <use transform="translate(492.822266 0.015625)" xlink:href="#DejaVuSans-65"/>
      <use transform="translate(554.345703 0.015625)" xlink:href="#DejaVuSans-76"/>
      <use transform="translate(613.525391 0.015625)" xlink:href="#DejaVuSans-2e"/>
     </g>
    </g>
   </g>
  </g>
 </g>
 <defs>
  <clipPath id="p4b529f77e4">
   <rect height="217.44" width="334.8" x="54" y="34.56"/>
  </clipPath>
 </defs>
</svg>
